<?xml version="1.0" encoding="UTF-8" standalone="no"?><!DOCTYPE svg PUBLIC "-//W3C//DTD SVG 1.1//EN" "http://www.w3.org/Graphics/SVG/1.1/DTD/svg11.dtd"><svg width="100%" height="100%" viewBox="0 0 330 330" version="1.1" xmlns="http://www.w3.org/2000/svg" xmlns:xlink="http://www.w3.org/1999/xlink" xml:space="preserve" xmlns:serif="http://www.serif.com/" style="fill-rule:evenodd;clip-rule:evenodd;stroke-linejoin:round;stroke-miterlimit:2;"><g id="Background"><path d="M97.257,42.02c0.153,-4.114 -0.263,-7.771 -0.061,-10.706c0.182,-2.641 0.868,-4.751 2.556,-6.243c1.608,-1.422 4.214,-2.318 8.481,-2.372c12.068,-0.153 17.217,0.213 19.639,0.01c0.572,-0.048 0.91,-0.065 1.125,-0.26c0.127,-0.115 0.192,-0.281 0.282,-0.48c1.803,-3.985 7.528,-17.387 26.099,-21.909c0.158,-0.038 0.323,-0.047 0.487,-0.023l0.053,-0.002l0.025,0.007c0.874,0.029 4.324,-0.034 7.774,-0.094c3.595,-0.063 7.19,-0.125 7.982,-0.09l0.597,0.115c0.601,0.254 1.637,0.427 2.97,0.716c5.96,1.293 17.329,4.378 24.757,21.33c0.063,0.143 0.101,0.269 0.197,0.357c0.19,0.175 0.506,0.191 1.06,0.25c2.378,0.25 7.57,0.021 19.864,0.072c4.482,0.018 7.234,0.905 8.937,2.329c1.693,1.416 2.447,3.385 2.701,5.822c0.316,3.039 -0.169,6.881 -0.012,11.166c0.24,0.033 0.585,0.073 0.961,0.091c2.941,0.142 9.924,-0.039 26.547,0.115c18.709,0.174 31.882,12.693 34.687,29.548c0.336,2.014 0.316,1.994 0.316,213.176c0,11.971 3.351,33.589 -21.685,43.033c-3.381,1.275 -5.065,1.478 -5.707,1.499c-0.199,0.207 -0.5,0.491 -0.733,0.585c-0.151,0.061 -0.313,0.092 -0.476,0.092l-203.331,0c-0.21,-0 -0.416,-0.052 -0.601,-0.151c-0.81,-0.434 -0.759,-0.497 -1.654,-0.712c-30.506,-7.337 -26.347,-35.573 -26.347,-37.932c0,-217.645 -0.018,-217.619 0.306,-219.589c2.757,-16.733 15.946,-29.377 34.696,-29.548c16.619,-0.152 23.602,0.033 26.545,-0.109c0.377,-0.018 0.723,-0.058 0.964,-0.091Zm135.506,18.661c-0.334,6.81 0.654,13.382 -0.195,18.278c-0.645,3.718 -2.281,6.548 -5.911,8.063c-0.585,0.244 -0.997,0.449 -4.169,0.557c-6.603,0.225 -26.586,0.186 -93.074,0.186c-12.529,0 -18.967,0.127 -22.721,-0.21c-4.196,-0.376 -5.384,-1.292 -7.386,-3.382c-0.072,-0.075 -0.135,-0.159 -0.186,-0.249c-1.225,-2.144 -1.793,-5.005 -1.987,-8.05c-0.274,-4.293 0.174,-8.96 0.265,-12.272c0.03,-1.085 0.023,-2.011 -0.077,-2.706c-0.021,-0.144 -0.066,-0.319 -0.103,-0.446c-0.473,-0.045 -1.542,-0.139 -2.638,-0.173c-7.191,-0.223 -23.596,0.104 -25.436,0.139c-8.945,0.178 -16.099,6.983 -16.261,16.085l-0,0.015c-0.001,0.034 -0.002,221.47 0.001,221.886c0.008,0.873 0.029,4.771 2.733,8.162c1.825,2.288 4.871,4.312 9.892,5.091c4.561,0.707 196.946,0.251 197.188,0.226c5.157,-0.529 8.542,-2.265 10.73,-4.505c5.136,-5.256 3.711,-13.086 3.711,-13.454c0,-218.466 0.048,-218.445 -0.201,-219.767c-1.827,-9.74 -8.794,-12.728 -14.826,-13.577c-4.239,-0.597 -8.05,-0.173 -9.546,-0.173c-10.032,0 -15.26,-0.067 -17.991,0.065c-0.783,0.038 -1.479,0.15 -1.814,0.212Zm-133.848,136.191c0.246,-0.191 0.69,-0.546 1.157,-0.971c2.467,-2.25 8.127,-7.859 22.284,-21.315c2.363,-2.246 4.91,-3.081 7.25,-2.992c5.551,0.21 9.995,5.734 8.716,11.014c-0.3,1.238 -0.497,1.999 -2.905,4.556c-3.184,3.379 -10.664,10.377 -29.065,27.921c-2.64,2.518 -4.941,3.544 -6.986,3.671c-1.991,0.124 -3.793,-0.589 -5.511,-1.816c-2.248,-1.605 -4.363,-4.137 -6.708,-6.448l-0.038,-0.039c-3.95,-4.244 -7.937,-8.135 -10.414,-10.718c-4.176,-4.356 -3.246,-10.904 0.68,-13.885c3.936,-2.989 7.931,-1.871 11.531,0.801c2.887,2.143 5.506,5.304 7.555,7.671c0.761,0.88 1.437,1.642 2.015,2.174c0.162,0.149 0.307,0.279 0.441,0.377Zm5.571,57.299c2.375,-2.147 15.972,-15.203 18.405,-17.485c5.111,-4.793 12.108,-2.093 14.479,2.231c0.973,1.774 1.391,3.282 1.274,4.775c-0.117,1.479 -0.764,2.972 -2.085,4.712c-2.3,3.031 -6.796,6.997 -13.94,13.759c-9.8,9.276 -14.939,14.416 -18.296,16.95c-1.908,1.44 -3.333,2.095 -4.641,2.268c-1.359,0.179 -2.628,-0.143 -4.217,-0.831c-0.826,-0.358 -1.326,-0.578 -2.778,-1.919c-1.909,-1.763 -5.713,-5.714 -15.233,-15.511c-2.217,-2.281 -3.185,-4.45 -3.466,-6.366c-0.686,-4.678 2.755,-7.991 3.596,-8.541c1.94,-1.269 3.703,-1.746 5.396,-1.638c1.668,0.107 3.288,0.795 4.962,1.983c2.96,2.102 6.165,5.861 10.48,10.325c0.21,0.218 0.34,0.404 0.525,0.417c0.185,0.013 0.336,-0.15 0.567,-0.325c1.064,-0.808 2.494,-2.454 4.95,-4.783l0.022,-0.02Zm-5.706,-119.983c0.214,-0.128 0.583,-0.363 0.96,-0.667c1.083,-0.873 2.733,-2.414 5.349,-5.023c0.102,-0.102 0.218,-0.183 0.341,-0.243c4.546,-4.258 15.2,-14.58 17.461,-16.664c5.414,-4.989 12.266,-1.836 14.489,2.247c3.636,6.679 -2.072,11.166 -3.911,12.921c-1.917,1.828 -14.556,13.787 -15.822,14.986c-6.587,6.233 -11.058,11.164 -14.893,13.26c-2.973,1.625 -5.627,1.735 -8.488,-0.143c-1.576,-1.034 -17.738,-17.874 -17.753,-17.891c-4.972,-5.619 -1.692,-12.036 1.061,-13.843c3.787,-2.487 7.224,-1.811 10.383,0.281c4.062,2.691 7.611,7.973 10.823,10.781Zm154.203,72.51c-1.324,1.054 -2.175,1.648 -5.105,1.961c-3.84,0.41 -11.755,0.308 -31.23,0.308c-36.454,0 -51.079,0.042 -57.396,-0.141c-4.606,-0.134 -5.166,-0.434 -6.078,-0.875c-5.414,-2.621 -6.492,-9.863 -2.818,-14.049c1.554,-1.771 3.954,-3.023 7.261,-3.089c0.915,-0.018 88.634,-0.026 89.239,0.006c4.535,0.241 7.595,2.664 8.79,5.743c1.197,3.086 0.55,6.911 -2.552,10.038c-0.035,0.035 -0.072,0.068 -0.111,0.099Zm-102.221,-75.759c0.966,-0.75 1.753,-1.799 4.653,-2.486c3.035,-0.719 82.897,-0.27 90.106,-0.227c5.849,0.035 9.1,2.802 10.26,6.046c1.768,4.946 -1.336,11.309 -8.204,12.078c-2.462,0.276 -81.566,0.083 -88.659,0.065c-5.159,-0.013 -8.484,-2.071 -9.933,-4.907c-1.462,-2.86 -1.082,-6.648 1.522,-10.302c0.072,-0.101 0.158,-0.191 0.256,-0.267Zm-0.046,125.227c2.151,-2.009 3.199,-2.853 8.202,-2.863l0.003,-0l86.592,0l0.011,0c5.905,0.05 9.132,2.849 10.259,6.114c1.719,4.978 -1.474,11.346 -8.214,12.046c-4.15,0.431 -81.561,0.115 -88.654,0.085c-4.598,-0.019 -7.537,-1.633 -9.158,-3.801c-2.5,-3.342 -1.952,-8.173 0.859,-11.475c0.031,-0.037 0.065,-0.072 0.1,-0.105Zm36.315,-218.396c-0.763,-1.004 -1.654,-1.72 -2.44,-4.555c-2.565,-9.251 -8.2,-14.441 -14.543,-16.198l-0.002,-0.001c-10.178,-2.818 -22.047,3.147 -25.431,14.877c-0.879,3.044 -1.833,5.043 -3.223,6.383c-2.064,1.989 -5.17,2.602 -10.914,2.67c-3.59,0.043 -8.287,-0.084 -14.533,-0.054c-0.191,0.001 -0.4,0.025 -0.545,0.046c-0.002,0.096 -0.003,0.21 0.002,0.302c0.027,0.509 0.094,1.136 0.093,1.885c-0,9.607 -0.022,15.87 0.005,19.96c0.02,3.039 0.066,4.854 0.172,5.945c0.021,0.215 0.053,0.42 0.082,0.578c6.071,0.03 94.092,0.039 98.594,0.01c0.046,-0.278 0.117,-0.776 0.142,-1.321c0.102,-2.174 0.042,-6.309 0.042,-14.267c0,-6.59 0.115,-10.172 -0.043,-12.107c-0.034,-0.421 -0.139,-0.876 -0.185,-1.061c-0.07,-0.006 -0.16,-0.013 -0.229,-0.013c-10.768,-0.02 -16.267,0.128 -19.589,-0.108c-3.654,-0.26 -4.911,-0.948 -7.174,-2.672c-0.111,-0.085 -0.206,-0.185 -0.282,-0.298Z" style="fill:#3d1700;"/></g></svg>