<svg width="20" height="20" viewBox="0 0 20 20" fill="none" xmlns="http://www.w3.org/2000/svg">
<path fill-rule="evenodd" clip-rule="evenodd" d="M10.8752 9.74643C10.8752 10.3678 10.3716 10.8714 9.75024 10.8714C9.12892 10.8714 8.62524 10.3678 8.62524 9.74643C8.62524 9.12511 9.12892 8.62143 9.75024 8.62143C10.3716 8.62143 10.8752 9.12511 10.8752 9.74643ZM5.62524 8.62143C5.00392 8.62143 4.50024 9.12511 4.50024 9.74643C4.50024 10.3678 5.00392 10.8714 5.62524 10.8714C6.24656 10.8714 6.75024 10.3678 6.75024 9.74643C6.75024 9.12511 6.24656 8.62143 5.62524 8.62143ZM13.8752 8.62143C13.2539 8.62143 12.7502 9.12511 12.7502 9.74643C12.7502 10.3678 13.2539 10.8714 13.8752 10.8714C14.4966 10.8714 15.0002 10.3678 15.0002 9.74643C15.0002 9.12511 14.4966 8.62143 13.8752 8.62143ZM19.5002 9.74643C19.501 13.1705 17.7056 16.3439 14.7703 18.1069C11.835 19.8698 8.19002 19.9639 5.16774 18.3546L1.97556 19.4186C1.43651 19.5984 0.842157 19.4581 0.440355 19.0563C0.0385523 18.6545 -0.101711 18.0602 0.0780566 17.5211L1.14212 14.3289C-0.763016 10.747 -0.251014 6.35975 2.42771 3.31281C5.10643 0.265867 9.39201 -0.803887 13.1884 0.626752C16.9848 2.05739 19.4986 5.68941 19.5002 9.74643ZM18.0002 9.74643C17.9993 6.27797 15.829 3.18051 12.5693 1.99534C9.30956 0.810173 5.65667 1.79042 3.42825 4.44831C1.19983 7.1062 0.871819 10.8741 2.60743 13.8771C2.71494 14.0631 2.73747 14.2864 2.66931 14.4902L1.50024 17.9964L5.00649 16.8274C5.08286 16.8013 5.16299 16.788 5.24368 16.788C5.3754 16.7882 5.50474 16.8231 5.61868 16.8892C8.17135 18.3662 11.3183 18.3681 13.8728 16.8945C16.4273 15.4208 18.0009 12.6956 18.0002 9.74643Z" fill="#121417"/>
</svg>
